<svg xmlns="http://www.w3.org/2000/svg" width="79.49" height="79.49" viewBox="0 0 79.49 79.49">
    <g>
        <path fill="none" d="M0 0h79.49v79.49H0z" transform="translate(0 79.49) rotate(-90)"/>
        <path fill="#fff" d="M30.146 49.109l.079-37.154 17.166 17.1a3.556 3.556 0 0 0 5 0 3.479 3.479 0 0 0 0-4.94L29.205 1.025a3.513 3.513 0 0 0-4.96 0L1.029 24.077a3.5 3.5 0 0 0 4.96 4.94l17.2-17.061-.079 37.154a3.518 3.518 0 0 0 7.035 0z" transform="translate(0 79.49) rotate(-90) translate(13.038 13.067)"/>
    </g>
</svg>
