<svg id="그룹_1234" data-name="그룹 1234" xmlns="http://www.w3.org/2000/svg" width="64" height="64" viewBox="0 0 64 64">
    <defs>
        <style>
            .cls-2{fill:#01a014}
        </style>
    </defs>
    <circle id="타원_30" data-name="타원 30" cx="32" cy="32" r="32" style="fill:#fff"/>
    <g id="그룹_1191" data-name="그룹 1191" transform="translate(13 17)">
        <g id="그룹_1192" data-name="그룹 1192">
            <g id="그룹_1190" data-name="그룹 1190" transform="translate(4.778 1.458)">
                <path id="빼기_4" data-name="빼기 4" class="cls-2" d="M26.47 29.779H3.309A3.313 3.313 0 0 1 0 26.47V3.309A3.313 3.313 0 0 1 3.309 0H26.47a3.313 3.313 0 0 1 3.309 3.309v10.366L23.257 20.2a.579.579 0 0 0-.175.421v3.551a.578.578 0 0 0 .584.584h3.551a.547.547 0 0 0 .409-.176l2.152-2.151v4.041a3.313 3.313 0 0 1-3.308 3.309zm-18.2-9.926a1.654 1.654 0 0 0 0 3.309h8.272a1.654 1.654 0 0 0 0-3.309zm0-6.617a1.654 1.654 0 1 0 0 3.308h13.237a1.654 1.654 0 1 0 0-3.308zm0-6.618a1.654 1.654 0 0 0 0 3.309h13.237a1.654 1.654 0 0 0 0-3.309z"/>
                <path id="패스_581" data-name="패스 581" class="cls-2" d="M3 14.651V17.1a.4.4 0 0 0 .4.4h2.452a.378.378 0 0 0 .282-.121l8.8-8.791-3.022-3.018-8.791 8.791a.4.4 0 0 0-.121.29zm14.27-8.4a.8.8 0 0 0 0-1.136l-1.886-1.882a.8.8 0 0 0-1.136 0l-1.474 1.475L15.8 7.729l1.47-1.474z" transform="translate(21.031 6.36)"/>
            </g>
            <path id="사각형_23950" data-name="사각형 23950" style="fill:none" d="M0 0h39v34H0z"/>
        </g>
    </g>
</svg>
