<svg xmlns="http://www.w3.org/2000/svg" width="25" height="25" viewBox="0 0 25 25">
    <g>
        <path fill="#1a1a1a" d="M305.19 225.238a1.25 1.25 0 0 1 1.259 1.261v11.255a1.181 1.181 0 0 1-.366.864 1.212 1.212 0 0 1-.893.366h-3.747V244h-14.988v-5.012h-3.747a1.213 1.213 0 0 1-.893-.366 1.18 1.18 0 0 1-.366-.864V226.5a1.25 1.25 0 0 1 1.259-1.261h3.747V219h14.988v6.242zm-16.247 0h10.012v-3.751h-10.012zm10.012 11.255h-10.012v5.012h10.012zm4.611-6.609a1.275 1.275 0 0 0 0-1.788 1.181 1.181 0 0 0-.864-.366 1.26 1.26 0 1 0 0 2.521 1.18 1.18 0 0 0 .864-.367z" transform="translate(-281.449 -218.996)"/>
    </g>
</svg>
