<svg id="그룹_1233" data-name="그룹 1233" xmlns="http://www.w3.org/2000/svg" width="64" height="64" viewBox="0 0 64 64">
    <defs>
        <style>
            .cls-2{fill:none}.cls-3{fill:#01a014}
        </style>
    </defs>
    <circle id="타원_31" data-name="타원 31" cx="32" cy="32" r="32" style="fill:#fff"/>
    <g id="그룹_1221" data-name="그룹 1221" transform="translate(12.557 14.571)">
        <g id="dvr_black_24dp">
            <path id="패스_552" data-name="패스 552" class="cls-2" d="M0 0h39.605v36.965H0z"/>
            <path id="패스_553" data-name="패스 553" class="cls-3" d="M33.99 3H4.3A3.307 3.307 0 0 0 1 6.3v19.767a3.307 3.307 0 0 0 3.3 3.3h8.248v1.643a1.653 1.653 0 0 0 1.65 1.648h9.9a1.653 1.653 0 0 0 1.65-1.648v-1.648h8.242a3.307 3.307 0 0 0 3.3-3.3V6.3a3.307 3.307 0 0 0-3.3-3.3zm-1.65 23.067H5.949A1.653 1.653 0 0 1 4.3 24.419V7.943A1.653 1.653 0 0 1 5.949 6.3h26.392a1.653 1.653 0 0 1 1.65 1.648v16.471a1.653 1.653 0 0 1-1.65 1.648zm-12.1-14.829H14.2a1.648 1.648 0 1 0 0 3.3h6.04a1.648 1.648 0 1 0 0-3.3zm0 6.591H14.2a1.648 1.648 0 1 0 0 3.3h6.04a1.648 1.648 0 1 0 0-3.3zm-9.34-6.591H7.6v3.3h3.3zm0 6.591H7.6v3.3h3.3z" transform="translate(.658 .654)"/>
        </g>
        <g id="local_offer_black_24dp" transform="translate(23.552 12.236)">
            <path id="패스_554" data-name="패스 554" class="cls-2" d="M0 0h9.656v9.656H0z"/>
            <path id="패스_555" data-name="패스 555" class="cls-3" d="M9.809 5.854 6.188 2.233A.8.8 0 0 0 5.621 2H2.8a.807.807 0 0 0-.8.8v2.821a.8.8 0 0 0 .237.571l3.621 3.621a.8.8 0 0 0 .567.233.787.787 0 0 0 .567-.237l2.817-2.816a.787.787 0 0 0 .237-.567.813.813 0 0 0-.237-.572zm-6.4-1.843a.6.6 0 1 1 .6-.6.6.6 0 0 1-.601.601z" transform="translate(-1.195 -1.195)"/>
        </g>
    </g>
</svg>
