<svg xmlns="http://www.w3.org/2000/svg" width="44" height="54" viewBox="0 0 44 54">
    <g>
        <path fill="#007eff" d="M107.523 137.692l5.213 5.452v2.661h-44v-2.661l5.213-5.452v-14.83a17.555 17.555 0 0 1 3.636-10.962 16.342 16.342 0 0 1 9.212-6.148v-1.774a3.921 3.921 0 0 1 1.152-2.915 3.81 3.81 0 0 1 2.787-1.141 3.613 3.613 0 0 1 2.727 1.141 4.042 4.042 0 0 1 1.091 2.915v1.774a16.366 16.366 0 0 1 9.333 6.148 17.555 17.555 0 0 1 3.636 10.966zm-13.151 14.643a4.967 4.967 0 0 1-7.273 0 5.23 5.23 0 0 1-1.514-3.74h10.3a5.237 5.237 0 0 1-1.513 3.74z" transform="translate(0) translate(-68.736 -99.918)"/>
    </g>
</svg>
