<svg id="그룹_1232" data-name="그룹 1232" xmlns="http://www.w3.org/2000/svg" width="64" height="64" viewBox="0 0 64 64">
    <defs>
        <style>
            .cls-2{fill:none}.cls-3{fill:#01a014}
        </style>
    </defs>
    <circle id="타원_32" data-name="타원 32" cx="32" cy="32" r="32" style="fill:#fff"/>
    <g id="그룹_1201" data-name="그룹 1201" transform="translate(12.595 14.885)">
        <g id="그룹_1200" data-name="그룹 1200">
            <g id="그룹_1177" data-name="그룹 1177">
                <g id="dvr_black_24dp">
                    <path id="패스_552" data-name="패스 552" class="cls-2" d="M0 0h39.361v36.737H0z"/>
                    <path id="패스_553" data-name="패스 553" class="cls-3" d="M33.787 3H4.279A3.286 3.286 0 0 0 1 6.275v19.65A3.286 3.286 0 0 0 4.279 29.2h8.2v1.637a1.643 1.643 0 0 0 1.639 1.637h9.836a1.643 1.643 0 0 0 1.639-1.637V29.2h8.2a3.286 3.286 0 0 0 3.279-3.275V6.275A3.286 3.286 0 0 0 33.787 3zm-1.64 22.925H5.918a1.643 1.643 0 0 1-1.639-1.637V7.912a1.643 1.643 0 0 1 1.639-1.637h26.229a1.643 1.643 0 0 1 1.639 1.637v16.375a1.643 1.643 0 0 1-1.639 1.638z" transform="translate(.648 .631)"/>
                </g>
            </g>
        </g>
        <g id="print_black_24dp_3_" data-name="print_black_24dp (3)" transform="translate(17.056 8.528)">
            <path id="패스_591" data-name="패스 591" class="cls-2" d="M0 0h15.744v15.744H0z"/>
            <path id="패스_592" data-name="패스 592" class="cls-3" d="M13.152 6.28H3.968A1.965 1.965 0 0 0 2 8.248v2.624a1.316 1.316 0 0 0 1.312 1.312h1.312V13.5a1.316 1.316 0 0 0 1.312 1.312h5.248A1.316 1.316 0 0 0 12.5 13.5v-1.316h1.312a1.316 1.316 0 0 0 1.312-1.312V8.248a1.965 1.965 0 0 0-1.972-1.968zm-2.624 7.22H6.592a.658.658 0 0 1-.656-.656v-2.628h5.248v2.624a.658.658 0 0 1-.656.66zm2.624-4.6a.656.656 0 1 1 .656-.656.658.658 0 0 1-.656.656zM11.84 3H5.28a.658.658 0 0 0-.656.656v1.312a.658.658 0 0 0 .656.656h6.56a.658.658 0 0 0 .656-.656V3.656A.658.658 0 0 0 11.84 3z" transform="translate(-.688 -1.032)"/>
        </g>
        <g id="donut_small_black_24dp_1_" data-name="donut_small_black_24dp (1)" transform="rotate(-30 30.25 -2.994)">
            <path id="패스_593" data-name="패스 593" class="cls-2" d="M0 0h9.163v9.163H0z"/>
            <path id="패스_594" data-name="패스 594" class="cls-3" d="M3.436 2.734V0a3.839 3.839 0 0 0 0 7.636V4.9a1.239 1.239 0 0 1-.764-1.084 1.239 1.239 0 0 1 .764-1.082zm1.474.7h2.726A3.758 3.758 0 0 0 4.2 0v2.734a1.072 1.072 0 0 1 .71.702zM4.2 4.9v2.736A3.758 3.758 0 0 0 7.636 4.2H4.91a1.072 1.072 0 0 1-.71.7z" transform="translate(.764 .764)"/>
        </g>
    </g>
</svg>
