<svg id="그룹_1235" data-name="그룹 1235" xmlns="http://www.w3.org/2000/svg" width="64" height="64" viewBox="0 0 64 64">
    <defs>
        <style>
            .cls-2{fill:#01a014}
        </style>
    </defs>
    <circle id="타원_29" data-name="타원 29" cx="32" cy="32" r="32" style="fill:#fff"/>
    <g id="그룹_1182" data-name="그룹 1182" transform="translate(17.239 15.591)">
        <path id="빼기_2" data-name="빼기 2" class="cls-2" d="M25.967 32.458H3.246A3.25 3.25 0 0 1 0 29.212V6.492a3.25 3.25 0 0 1 3.246-3.246h6.783a4.849 4.849 0 0 1 9.153 0h6.784a3.249 3.249 0 0 1 3.245 3.246v10.169l-6.4 6.4a.567.567 0 0 0-.172.412v3.484a.567.567 0 0 0 .573.573H26.7a.537.537 0 0 0 .4-.172l2.111-2.109v3.966a3.249 3.249 0 0 1-3.244 3.243zM8.115 22.721a1.623 1.623 0 0 0 0 3.246h8.114a1.623 1.623 0 0 0 0-3.246zm0-6.492a1.623 1.623 0 0 0 0 3.246H21.1a1.623 1.623 0 0 0 0-3.246zm0-6.492a1.623 1.623 0 0 0 0 3.246H21.1a1.623 1.623 0 1 0 0-3.246zm6.491-6.491a1.623 1.623 0 1 0 1.623 1.623 1.625 1.625 0 0 0-1.623-1.623z"/>
        <path id="패스_566" data-name="패스 566" class="cls-2" d="M3 14.429v2.4a.391.391 0 0 0 .4.4h2.4a.371.371 0 0 0 .277-.119l8.631-8.623-2.966-2.966-8.623 8.623a.388.388 0 0 0-.119.285zm14-8.236a.787.787 0 0 0 0-1.114l-1.85-1.85a.787.787 0 0 0-1.114 0l-1.448 1.446 2.964 2.964L17 6.193z" transform="translate(20.574 9.428)"/>
    </g>
</svg>
