<svg xmlns="http://www.w3.org/2000/svg" width="40" height="40" viewBox="0 0 40 40">
    <defs>
        <clipPath id="lcqtkwwsaa">
            <path fill="none" d="M0 0H40V40H0z"/>
        </clipPath>
    </defs>
    <g>
        <g>
            <g>
                <g clip-path="url(#lcqtkwwsaa)" transform="translate(-5318 -2287) translate(5318 2287)">
                    <path fill="#d3d3d3" d="M5.855 5.868A19.252 19.252 0 0 1 20 0a19.255 19.255 0 0 1 14.145 5.868A19.294 19.294 0 0 1 40 20a19.288 19.288 0 0 1-5.855 14.131A19.252 19.252 0 0 1 20 40a19.249 19.249 0 0 1-14.145-5.869A19.28 19.28 0 0 1 0 20 19.286 19.286 0 0 1 5.855 5.868m2.857 25.493A15.362 15.362 0 0 0 20 36.056a15.363 15.363 0 0 0 11.288-4.695A15.493 15.493 0 0 0 35.972 20a15.5 15.5 0 0 0-4.684-11.362A15.371 15.371 0 0 0 20 3.943 15.369 15.369 0 0 0 8.712 8.638 15.492 15.492 0 0 0 4.028 20a15.485 15.485 0 0 0 4.684 11.361"/>
                </g>
            </g>
        </g>
    </g>
</svg>
