<svg width="48" height="48" viewBox="0 0 48 48" fill="none" xmlns="http://www.w3.org/2000/svg">
    <path d="M42.975 30.924c-.92-1.216-.92-3.425-.92-3.425.097-2.284.048-4.618-.58-6.827-.291-1.018-.727-1.936-1.623-2.557-1.04-.72-2.42-.918-3.533-.248h-.121c-1.743-1.192-4.332-1.142-6.341-1.117-1.307 0-2.687.372-3.97.149-.943-.174-1.766-.795-2.613-1.167a19.362 19.362 0 0 0-3.05-1.067 51.918 51.918 0 0 0-3.896-.845c-.46-.074-.896-.198-.993-.72-.048-.223-.097-.67 0-.843.194-.274.533-.298.823-.422.315-.174.63-.373.92-.621.557-.472 1.089-.968 1.573-1.514.75-.795 2.106-1.515 1.888-2.806-.315-1.067-1.5-1.315-2.445-1.315-.484 0-.992.198-1.452.149-.629-.075-1.089-.571-1.694-.795a5.279 5.279 0 0 0-2.323-.298.133.133 0 0 1-.121-.074l-1.065-2.483s-.097-.099-.17-.074c-.048 0-.072.074-.072.124v3.004s-.024.1-.073.124l-.653.223s-.121 0-.146-.05L8.801 2.675s-.097-.074-.17-.05c-.048 0-.072.075-.072.1V6.05s-.049.125-.121.125h-.025c-.92-.224-2.323-.274-3.146.322-.75.522.508 1.192 1.017 1.44.411.199.847.323 1.282.397.024 0 .049 0 .073.05.726.894-1.96 4.195-1.96 4.195C1.732 16.9.571 24.222 4.128 29.162c.485.645 1.041 1.266 1.646 1.812.654.62 1.573 1.192 1.573 2.21 0 1.216.17 2.432.436 3.624.266 1.241.678 2.383.678 3.674 0 .422-.121.844-.363 1.191-.267.348-.702.522-.872.969-.12.248-.363.844.049.968.46.124 1.113 0 1.573 0 .29 0 .58.1.726-.199.145-.298 0-.794 0-1.117v-1.216c0-1.813.702-6.728.823-7.497 0-.05.048-.1.121-.1h.896s.096.05.12.1c.218 1.142.8 2.234 1.332 3.252.217.422.484.869.677 1.29.266.572.242 1.192.266 1.813 0 .322.097.695.049 1.018-.049.347-.29.595-.412.918-.12.323-.193.67-.266 1.018 0 .074.025.149.097.149h1.984s.098-.025.122-.075c.193-.62-.315-2.184-.315-2.184-.17-.323-.12-.82-.145-1.192a33.685 33.685 0 0 1-.073-2.21c0-.744-.024-1.513-.024-2.258 0-.298-.024-.596 0-.894.024-.422.049-.471.412-.521.556-.075 1.137-.05 1.694-.1 1.645-.099 3.291-.223 4.913-.347 1.452-.1 2.904-.223 4.38-.323.218 0 .436-.05.654-.05.194 0 .387-.024.532.125.121.149.242.347.29.521.146.447.243.943.267 1.415.024.447.024.919.073 1.39.096 1.564-.267 2.83-1.041 4.245-.145.422-.315.82-.508 1.217-.46.77-.92 1.315-1.114 2.209 0 .075.025.124.097.149h2.203s.12-.05.12-.124V42.79c-.024-.546.098-1.093.412-1.564.17-.249.315-.522.484-.77.339-.521.678-1.067 1.017-1.614.629-1.067 1.186-2.184 1.452-3.4a8.362 8.362 0 0 1 .484-1.688c.194-.422.46-1.018.992-1.118.678-.099 1.017.67 1.283 1.167s.46 1.043.678 1.564c.242.472.435.993.58 1.49a9.111 9.111 0 0 1 0 4.12c-.314 1.44-1.04 2.582-1.766 3.823-.025.025-.049.075-.025.124 0 .075.097.075.17.075h1.016c.194 0 .412 0 .581-.1.218-.123.388-.347.484-.595.315-.67.436-1.365.581-2.085.145-.67.46-1.34.678-1.962a9.71 9.71 0 0 0 .46-1.837c.193-1.24.266-2.482.193-3.723V32.24c0-.645.025-1.266.049-1.911 0-.795.145-1.589.387-2.334.266-.819.484-1.638.63-2.482.241-1.241.241-2.508.048-3.774-.17-1.017-.533-2.06-1.186-2.88-.049-.049-.025-.123 0-.173h.024c1.089-.496 2.009 0 2.59.968.944 1.515 1.186 3.55 1.33 5.313.146 1.886-.46 4.816 1.114 6.23-.073.82 0 2.806 2.033 3.75 0 0 .92.347 1.428.322 0 0-.387-3.376-3.05-4.32l.025-.025z" fill="#353A40"/>
</svg>
