<svg width="48" height="48" viewBox="0 0 48 48" fill="none" xmlns="http://www.w3.org/2000/svg">
    <path d="M9 44c-.8 0-1.5-.3-2.1-.9-.6-.6-.9-1.3-.9-2.1V10c0-.8.3-1.5.9-2.1C7.5 7.3 8.2 7 9 7h3.25V4h3.25v3h17V4h3.25v3H39c.8 0 1.5.3 2.1.9.6.6.9 1.3.9 2.1v31c0 .8-.3 1.5-.9 2.1-.6.6-1.3.9-2.1.9H9zm0-3h30V19.5H9V41zm0-24.5h30V10H9v6.5zM24 28c-.567 0-1.042-.192-1.425-.575C22.192 27.042 22 26.567 22 26c0-.567.192-1.042.575-1.425.383-.383.858-.575 1.425-.575.567 0 1.042.192 1.425.575.383.383.575.858.575 1.425 0 .567-.192 1.042-.575 1.425-.383.383-.858.575-1.425.575zm-8 0c-.567 0-1.042-.192-1.425-.575C14.192 27.042 14 26.567 14 26c0-.567.192-1.042.575-1.425.383-.383.858-.575 1.425-.575.567 0 1.042.192 1.425.575.383.383.575.858.575 1.425 0 .567-.192 1.042-.575 1.425-.383.383-.858.575-1.425.575zm16 0c-.567 0-1.042-.192-1.425-.575C30.192 27.042 30 26.567 30 26c0-.567.192-1.042.575-1.425.383-.383.858-.575 1.425-.575.567 0 1.042.192 1.425.575.383.383.575.858.575 1.425 0 .567-.192 1.042-.575 1.425-.383.383-.858.575-1.425.575zm-8 8c-.567 0-1.042-.192-1.425-.575C22.192 35.042 22 34.567 22 34c0-.567.192-1.042.575-1.425.383-.383.858-.575 1.425-.575.567 0 1.042.192 1.425.575.383.383.575.858.575 1.425 0 .567-.192 1.042-.575 1.425-.383.383-.858.575-1.425.575zm-8 0c-.567 0-1.042-.192-1.425-.575C14.192 35.042 14 34.567 14 34c0-.567.192-1.042.575-1.425.383-.383.858-.575 1.425-.575.567 0 1.042.192 1.425.575.383.383.575.858.575 1.425 0 .567-.192 1.042-.575 1.425-.383.383-.858.575-1.425.575zm16 0c-.567 0-1.042-.192-1.425-.575C30.192 35.042 30 34.567 30 34c0-.567.192-1.042.575-1.425.383-.383.858-.575 1.425-.575.567 0 1.042.192 1.425.575.383.383.575.858.575 1.425 0 .567-.192 1.042-.575 1.425-.383.383-.858.575-1.425.575z" fill="#353A40"/>
</svg>
