<svg width="48" height="48" viewBox="0 0 48 48" fill="none" xmlns="http://www.w3.org/2000/svg">
    <path d="M31.295 36.155a110.402 110.402 0 0 1-7.641 8.705A112.53 112.53 0 0 1 16 36.144l-.007-.01a61.048 61.048 0 0 1-5.915-8.838c-1.773-3.326-2.578-6.048-2.578-8.12v-.01a17.704 17.704 0 0 1 1.28-6.758l.001-.003a15.786 15.786 0 0 1 14.849-9.904h.036a15.79 15.79 0 0 1 14.848 9.912 18.073 18.073 0 0 1 1.282 6.767v.006c0 2.07-.804 4.783-2.579 8.12a61.569 61.569 0 0 1-5.916 8.84l-.007.01zM23.649 8.364c-5.81 0-10.526 4.714-10.526 10.525 0 5.81 4.715 10.526 10.526 10.526 5.81 0 10.525-4.715 10.525-10.526 0-5.81-4.715-10.525-10.525-10.525z" stroke="#323232" stroke-width="3"/>
</svg>
