<svg xmlns="http://www.w3.org/2000/svg" width="48" height="48.5" viewBox="0 0 48 48.5">
    <g data-name="그룹 19686">
        <g data-name="그룹 19684">
            <g data-name="그룹 19685">
                <path data-name="빼기 1" d="M17.488 45.576a112.5 112.5 0 0 1-8.744-9.827 62.714 62.714 0 0 1-6.012-8.979C.919 23.366 0 20.422 0 18.019a19.234 19.234 0 0 1 1.374-7.261A17.135 17.135 0 0 1 17.488 0 17.136 17.136 0 0 1 33.6 10.758a19.234 19.234 0 0 1 1.374 7.261c0 2.4-.919 5.348-2.732 8.751a62.722 62.722 0 0 1-6.012 8.979 112.508 112.508 0 0 1-8.744 9.827zm0-36.79a8.948 8.948 0 1 0 8.948 8.948 8.958 8.958 0 0 0-8.948-8.948z" style="fill:#fff;stroke:transparent;stroke-miterlimit:10" transform="translate(6.511 .5)"/>
            </g>
        </g>
        <path data-name="사각형 24948" transform="translate(0 .5)" style="fill:none;opacity:.48" d="M0 0h48v48H0z"/>
    </g>
</svg>
