<svg width="128" height="128" viewBox="0 0 128 128" fill="none" xmlns="http://www.w3.org/2000/svg">
    <path d="M56.083 93a2.667 2.667 0 1 1 0 5.334 2.667 2.667 0 0 1 0-5.334zm16 0a2.667 2.667 0 1 1 0 5.334 2.667 2.667 0 0 1 0-5.334zM53.417 55.667a5.333 5.333 0 1 1 0 10.666 5.333 5.333 0 0 1 0-10.666zm21.333 0a5.333 5.333 0 1 1 0 10.666 5.333 5.333 0 0 1 0-10.666zM96.083 93c0 11.787-14.346 21.333-32 21.333-17.653 0-32-9.546-32-21.333 0-4.8 2.4-9.227 6.4-12.8-4-5.333-6.4-12-6.4-19.2l.64-6.507c-2.88.8-6.346.8-9.173 0C18.11 53 9.896 46.867 11.123 42.6c1.227-4.267 11.414-5.067 16.854-3.467 3.146.907 6.506 3.2 8.48 5.654l3.04-4.32c-3.2-5.867-2.08-22.134 13.92-27.467l-.48.747c-1.494 2.346-5.334 9.76-1.28 17.76a32.105 32.105 0 0 1 24.853 0c4.053-8 .213-15.414-1.28-17.76L74.75 13c16 5.333 17.12 21.6 13.92 27.467l3.04 4.32c1.973-2.454 5.333-4.747 8.48-5.654 5.44-1.6 15.626-.8 16.853 3.467 1.227 4.267-6.987 10.4-12.427 11.893-2.826.8-6.293.8-9.173 0l.64 6.507c0 7.2-2.4 13.867-6.4 19.2 4 3.573 6.4 8 6.4 12.8zm-32-10.667c-11.786 0-21.333 4.8-21.333 10.667s9.547 10.667 21.333 10.667c11.787 0 21.334-4.8 21.334-10.667S75.87 82.333 64.082 82.333zm0-10.666c5.974 0 11.573 1.12 16.374 2.986 3.093-3.68 4.96-8.32 4.96-13.653a21.333 21.333 0 1 0-42.667 0c0 5.333 1.867 9.973 4.96 13.653 4.8-1.866 10.4-2.986 16.373-2.986z" fill="#967F5D"/>
</svg>
