<svg width="128" height="128" viewBox="0 0 128 128" fill="none" xmlns="http://www.w3.org/2000/svg">
    <g clip-path="url(#s26rv8pywa)">
        <path d="M78.688 53.333c5.152 0 9.334 4.182 9.334 9.334V80H88v5.333H40v-16h.011v-6.666c0-5.152 4.176-9.334 9.333-9.334h29.344zm38.646 9.334A9.335 9.335 0 0 0 108 53.333H90a14.592 14.592 0 0 1 3.355 9.334v6.666h-.021v16h20a3.999 3.999 0 0 0 4-4V62.667zM34.667 80h.01V62.667l.049-1.174a14.507 14.507 0 0 1 3.306-8.16H20l-.768.032a9.333 9.333 0 0 0-8.565 9.302v18.666c0 2.208 1.792 4 4 4h20V80zM64 16a16 16 0 1 1 0 32 16 16 0 0 1 0-32zm34.667 5.333a13.333 13.333 0 1 1 0 26.666 13.333 13.333 0 0 1 0-26.666zm-69.333 0a13.333 13.333 0 1 1 0 26.666 13.333 13.333 0 0 1 0-26.666zM10.667 94.667a4 4 0 0 1 4-4h98.667a3.999 3.999 0 0 1 4 4v2.666a20 20 0 0 1-20 20H30.667a19.999 19.999 0 0 1-20-20v-2.666z" fill="#699BF7"/>
    </g>
    <defs>
        <clipPath id="s26rv8pywa">
            <path fill="#fff" d="M0 0h128v128H0z"/>
        </clipPath>
    </defs>
</svg>
