<svg width="128" height="128" viewBox="0 0 128 128" fill="none" xmlns="http://www.w3.org/2000/svg">
    <g clip-path="url(#szgcn7d1ea)">
        <path d="M64 72.667A5.334 5.334 0 0 0 58.666 78v10.667a5.333 5.333 0 1 0 10.667 0V78A5.333 5.333 0 0 0 64 72.667zm2.026-15.574a5.334 5.334 0 0 0-3.093-.426l-.96.32-.96.48-.8.64A5.333 5.333 0 0 0 58.666 62a5.335 5.335 0 0 0 1.547 3.787 5.333 5.333 0 0 0 1.76 1.12 4.48 4.48 0 0 0 2.027.426 5.333 5.333 0 0 0 3.786-1.546A5.334 5.334 0 0 0 69.333 62a5.333 5.333 0 0 0-1.547-3.787 6.132 6.132 0 0 0-1.76-1.12zm40.64-11.413a6.897 6.897 0 0 0-.32-1.44v-.48a5.69 5.69 0 0 0-1.013-1.493l-32-32a5.708 5.708 0 0 0-1.493-1.014h-.534a5.866 5.866 0 0 0-1.653-.586h-32.32a16 16 0 0 0-16 16v74.666a15.998 15.998 0 0 0 16 16h53.333a15.998 15.998 0 0 0 16-16V45.68zm-32-18.827L88.48 40.667H80a5.334 5.334 0 0 1-5.334-5.334v-8.48zM96 99.333a5.335 5.335 0 0 1-5.334 5.334H37.333A5.334 5.334 0 0 1 32 99.333V24.667a5.333 5.333 0 0 1 5.333-5.334H64v16a16 16 0 0 0 16 16h16v48z" fill="#4ECB71"/>
    </g>
    <defs>
        <clipPath id="szgcn7d1ea">
            <path fill="#fff" d="M0 0h128v128H0z"/>
        </clipPath>
    </defs>
</svg>
