<svg xmlns="http://www.w3.org/2000/svg" width="48" height="48.185" viewBox="0 0 48 48.185">
    <g data-name="그룹 19687">
        <g data-name="그룹 19684">
            <g data-name="그룹 19685">
                <path data-name="빼기 1" d="M18.016 46.951a115.872 115.872 0 0 1-9.008-10.123 64.59 64.59 0 0 1-6.193-9.25C.947 24.071 0 21.038 0 18.562a19.816 19.816 0 0 1 1.416-7.48A17.652 17.652 0 0 1 18.016 0a17.652 17.652 0 0 1 16.6 11.083 19.813 19.813 0 0 1 1.416 7.48c0 2.476-.947 5.509-2.815 9.015a64.632 64.632 0 0 1-6.193 9.25 115.881 115.881 0 0 1-9.007 10.123zm0-37.9a9.218 9.218 0 1 0 9.218 9.218 9.228 9.228 0 0 0-9.218-9.217z" style="fill:#007eff;stroke:transparent;stroke-miterlimit:10" transform="translate(5.984 .525)"/>
            </g>
        </g>
        <path data-name="사각형 24948" style="fill:none;opacity:.48" d="M0 0h48v48H0z"/>
    </g>
</svg>
