<svg xmlns="http://www.w3.org/2000/svg" width="144" height="144" viewBox="0 0 144 144">
    <g data-name="그룹 19661">
        <path data-name="패스 7810" d="M144 72A72 72 0 1 1 72 0a71.726 71.726 0 0 1 72 72" style="fill:#e6efff"/>
        <path data-name="패스 7811" d="M58.914 75.1A71.83 71.83 0 0 0 112.8 50.858c-.925-1.048-1.832-2.11-2.815-3.1-.162-.162-.335-.317-.5-.479a72.137 72.137 0 0 0-4.734-4.3c-.05-.04-.1-.076-.148-.115a72.483 72.483 0 0 0-5.152-3.852c-.137-.094-.266-.191-.4-.284a72.501 72.501 0 0 0-5.36-3.258c-.245-.133-.486-.277-.734-.41a73.616 73.616 0 0 0-5.515-2.657c-.306-.133-.612-.266-.918-.392q-2.813-1.172-5.742-2.1l-.976-.3a70.729 70.729 0 0 0-6.03-1.552c-.3-.061-.6-.115-.9-.173a71.987 71.987 0 0 0-6.408-.979c-.205-.022-.414-.029-.619-.05-2.286-.216-4.594-.349-6.934-.349s-4.648.133-6.934.349c-.205.022-.414.029-.619.05-2.171.227-4.3.565-6.408.979-.3.058-.6.112-.9.173a71.105 71.105 0 0 0-6.03 1.552l-.976.3q-2.927.934-5.742 2.1c-.31.126-.612.259-.918.392a74.896 74.896 0 0 0-5.519 2.66c-.245.13-.486.274-.731.407a73.169 73.169 0 0 0-5.364 3.262c-.133.086-.259.184-.392.277a71.412 71.412 0 0 0-5.162 3.859l-.14.108a73.647 73.647 0 0 0-4.741 4.309c-.162.162-.331.313-.49.475-.986.99-1.894 2.056-2.819 3.1A71.83 71.83 0 0 0 58.914 75.1" transform="translate(13.086 68.9)" style="fill:#007eff"/>
        <path data-name="패스 7812" d="M69.6 35.9A28.8 28.8 0 1 1 40.8 6.96 28.874 28.874 0 0 1 69.6 35.9" transform="translate(31.2 20.096)" style="fill:#007eff"/>
    </g>
</svg>
