<svg width="60" height="60" viewBox="0 0 60 60" fill="none" xmlns="http://www.w3.org/2000/svg">
    <path d="M39 30 27 18v24l12-12zm21 0c0 4.15-.788 8.05-2.364 11.7-1.574 3.65-3.711 6.825-6.411 9.525-2.7 2.7-5.875 4.837-9.525 6.411C38.05 59.212 34.15 60 30 60c-4.15 0-8.05-.788-11.7-2.364-3.65-1.574-6.825-3.711-9.525-6.411-2.7-2.7-4.838-5.875-6.414-9.525C.787 38.05 0 34.15 0 30c0-4.15.787-8.05 2.361-11.7 1.576-3.65 3.714-6.825 6.414-9.525 2.7-2.7 5.875-4.837 9.525-6.411C21.95.788 25.85 0 30 0c4.15 0 8.05.788 11.7 2.364 3.65 1.574 6.825 3.711 9.525 6.411 2.7 2.7 4.837 5.875 6.411 9.525C59.212 21.95 60 25.85 60 30z" fill="#19dec0"/>
</svg>
