<svg xmlns="http://www.w3.org/2000/svg" width="54" height="54" viewBox="0 0 54 54">
    <g data-name="그룹 19717">
        <path data-name="사각형 24963" style="fill:none" d="M0 0h54v54H0z"/>
        <g data-name="그룹 19716">
            <g data-name="그룹 19718">
                <path data-name="패스 7821" d="M20 40a19.28 19.28 0 0 1-14.156-5.844A19.28 19.28 0 0 1 0 20 19.28 19.28 0 0 1 5.844 5.844 19.28 19.28 0 0 1 20 0a19.33 19.33 0 0 1 9.313 2.156 22.063 22.063 0 0 1 6.937 5.907V0H40v15.875H24.125v-3.75h10.5a19.139 19.139 0 0 0-6.062-6.062A15.78 15.78 0 0 0 20 3.75 15.686 15.686 0 0 0 8.469 8.469 15.686 15.686 0 0 0 3.75 20a15.686 15.686 0 0 0 4.719 11.531A15.686 15.686 0 0 0 20 36.25a16.4 16.4 0 0 0 9.5-2.969 15.439 15.439 0 0 0 6-7.844h3.875A19.15 19.15 0 0 1 32.188 36 19.9 19.9 0 0 1 20 40" style="fill:#1a1a1a" transform="rotate(25 7.713 39.287)"/>
            </g>
        </g>
    </g>
</svg>
