<svg xmlns="http://www.w3.org/2000/svg" width="56" height="52" viewBox="0 0 56 52">
    <g data-name="그룹 19501">
        <g data-name="그룹 19499">
            <path data-name="패스 254" d="M453.279 2162.549c-15.464 0-28 10.016-28 22.374 0 8.043 5.311 15.091 13.283 19.035-.586 2.211-2.12 8.007-2.429 9.247-.379 1.539.559 1.518 1.173 1.1.481-.324 7.673-5.264 10.776-7.4a35.053 35.053 0 0 0 5.2.386c15.464 0 28-10.019 28-22.374s-12.536-22.374-28-22.374" style="fill:#2a1314" transform="translate(-425.279 -2162.549)"/>
            <path data-name="패스 255" d="M484.266 2270.205h-8.276a1.408 1.408 0 1 0 0 2.815h2.69v9.915a1.378 1.378 0 0 0 1.373 1.373h.3a1.376 1.376 0 0 0 1.371-1.373v-9.915h2.541a1.408 1.408 0 1 0 0-2.815" transform="translate(-467.353 -2254.421)" style="fill:#ffdb00"/>
            <path data-name="패스 256" d="M636.117 2280.506h-3.848v-10.126a1.527 1.527 0 1 0-3.054 0v10.915a1.486 1.486 0 0 0 .024.244 1.29 1.29 0 0 0-.024.244 1.277 1.277 0 0 0 1.277 1.279h5.625a1.278 1.278 0 0 0 0-2.556" transform="translate(-599.687 -2253.266)" style="fill:#ffdb00"/>
            <path data-name="패스 257" d="m701 2280.97-4.289-5.633 3.875-3.876a1.344 1.344 0 1 0-1.9-1.9l-4.8 4.8v-3.977a1.527 1.527 0 1 0-3.054 0v11.25a1.527 1.527 0 1 0 3.054 0v-3.471l.872-.871 4.057 5.323a1.366 1.366 0 1 0 2.185-1.645" transform="translate(-652.501 -2253.266)" style="fill:#ffdb00"/>
            <path data-name="패스 258" d="m549.893 2281.336-4.125-11.283-.013-.013a2.028 2.028 0 0 0-1.933-1.188 1.968 1.968 0 0 0-2.005 1.42 1.865 1.865 0 0 0-.079.186l-4.056 10.878a1.368 1.368 0 1 0 2.581.907l.7-2h5.645l.7 2a1.368 1.368 0 1 0 2.581-.907m-8.032-3.653 1.9-5.413c.021 0 .04.006.061.006l1.9 5.406z" transform="translate(-521.361 -2253.266)" style="fill:#ffdb00"/>
        </g>
    </g>
</svg>
