<svg width="23" height="38" viewBox="0 0 23 38" fill="none" xmlns="http://www.w3.org/2000/svg">
    <path d="M17.063 36.483.962 21.07a2.912 2.912 0 0 1-.743-1.089A3.54 3.54 0 0 1 0 18.725c0-.447.073-.866.22-1.257a2.91 2.91 0 0 1 .742-1.089L17.062.966c.642-.614 1.459-.921 2.45-.921.992 0 1.809.307 2.45.921.642.615.963 1.396.963 2.346 0 .95-.32 1.731-.963 2.345L8.312 18.725l13.65 13.067c.642.615.963 1.396.963 2.346 0 .95-.32 1.731-.963 2.345-.641.615-1.458.922-2.45.922-.991 0-1.808-.307-2.45-.922z" fill="#FF2E00"/>
</svg>
