<svg width="128" height="128" viewBox="0 0 128 128" fill="none" xmlns="http://www.w3.org/2000/svg">
    <path d="M98.667 48h16v64h-16V48zM77.333 69.333h16V112h-16V69.333zM56 58.667h16V112H56V58.667zM34.667 85.333h16V112h-16V85.333zM13.333 74.667h16V112h-16V74.667z" fill="#00BCD4"/>
    <path d="M21.333 50.667a8 8 0 1 0 0-16 8 8 0 0 0 0 16zM42.666 56a8 8 0 1 0 0-16 8 8 0 0 0 0 16zM64 37.333a8 8 0 1 0 0-16 8 8 0 0 0 0 16zM85.333 42.667a8 8 0 1 0 0-16 8 8 0 0 0 0 16zM106.667 32a8 8 0 1 0 0-16 8 8 0 0 0 0 16z" fill="#3F51B5"/>
    <path d="M104.267 19.2 84.8 29.067l-22.133-5.6-21.334 18.666L22.667 37.6 20 47.733l24 6.134L65.333 35.2l20.534 5.067 23.2-11.467-4.8-9.6z" fill="#3F51B5"/>
</svg>
