<svg xmlns="http://www.w3.org/2000/svg" width="40" height="40" viewBox="0 0 40 40">
    <defs>
        <clipPath id="bly4dokdia">
            <path fill="none" d="M0 0H40V40H0z"/>
        </clipPath>
    </defs>
    <g>
        <g clip-path="url(#bly4dokdia)">
            <path fill="#d3d3d3" d="M35.521 0A4.324 4.324 0 0 1 38.7 1.3 4.328 4.328 0 0 1 40 4.479v31.042A4.446 4.446 0 0 1 35.521 40H4.479A4.319 4.319 0 0 1 1.3 38.7 4.319 4.319 0 0 1 0 35.521V4.479A4.32 4.32 0 0 1 1.3 1.3 4.323 4.323 0 0 1 4.479 0zm1.052 3.426H3.427v33.147h33.146z"/>
        </g>
    </g>
</svg>
