<svg xmlns="http://www.w3.org/2000/svg" width="25" height="25" viewBox="0 0 25 25">
    <defs>
        <clipPath id="inwxka74aa">
            <path fill="none" d="M0 0H25V25H0z"/>
        </clipPath>
    </defs>
    <g opacity="0.25">
        <g>
            <g clip-path="url(#inwxka74aa)">
                <path fill="#d3d3d3" d="M22.2 0a2.7 2.7 0 0 1 1.986.814A2.705 2.705 0 0 1 25 2.8v19.4a2.779 2.779 0 0 1-2.8 2.8H2.8a2.7 2.7 0 0 1-1.986-.814A2.7 2.7 0 0 1 0 22.2V2.8A2.7 2.7 0 0 1 .814.814 2.7 2.7 0 0 1 2.8 0zm.658 2.141H2.142v20.717h20.716z" transform="translate(0)"/>
            </g>
        </g>
    </g>
</svg>
