<svg xmlns="http://www.w3.org/2000/svg" width="44" height="56" viewBox="0 0 44 56">
    <path fill="#007eff" d="M107.622 199.718a5.3 5.3 0 0 1 3.807 1.563 4.972 4.972 0 0 1 1.613 3.688v26.749a4.968 4.968 0 0 1-1.613 3.688 5.3 5.3 0 0 1-3.807 1.563H74.59a5.443 5.443 0 0 1-3.935-1.563 4.963 4.963 0 0 1-1.613-3.688v-26.749a4.967 4.967 0 0 1 1.613-3.688 5.443 5.443 0 0 1 3.935-1.563h25.033v-5.375a7.817 7.817 0 0 0-2.516-5.812 8.4 8.4 0 0 0-6.066-2.437 8.18 8.18 0 0 0-6 2.437 7.908 7.908 0 0 0-2.451 5.812H77.3a12.675 12.675 0 0 1 4.064-9.437 13.5 13.5 0 0 1 9.742-3.937 13.285 13.285 0 0 1 9.677 3.937 12.778 12.778 0 0 1 4 9.437v5.375zm0 32v-26.749H74.59v26.749zm-12.709-9.563a5.576 5.576 0 0 1-7.742 0 5.311 5.311 0 0 1 0-7.624 5.576 5.576 0 0 1 7.742 0 5.311 5.311 0 0 1 0 7.624z" transform="translate(-69.042 -180.969)"/>
</svg>
