<svg xmlns="http://www.w3.org/2000/svg" width="40" height="51.731" viewBox="0 0 40 51.731">
    <g>
        <g>
            <path fill="#191919" d="M533.366-68.458v13.683h8.889l11.111 11.4V-79.86l-11.111 11.4zm30 6.841a10.293 10.293 0 0 0-5.556-9.191v18.358a10.23 10.23 0 0 0 5.556-9.167zm-5.556-20v4.7a15.926 15.926 0 0 1 11.112 15.3 15.926 15.926 0 0 1-11.112 15.3v4.7a20.408 20.408 0 0 0 15.556-20 20.408 20.408 0 0 0-15.556-20z" transform="translate(-149 -795.635) translate(85) translate(-469.366 882.617)"/>
        </g>
        <path fill="none" stroke="#191919" stroke-width="4px" d="M24 0L0 50" transform="translate(-149 -795.635) translate(157.5 796.5)"/>
    </g>
</svg>
