<svg xmlns="http://www.w3.org/2000/svg" width="25" height="25" viewBox="0 0 25 25">
    <defs>
        <clipPath id="clip-path">
            <path id="사각형_23" d="M0 0H25V25H0z" class="cls-1"/>
        </clipPath>
        <style>
            .cls-1{fill:#007eff}
        </style>
    </defs>
    <g id="그룹_44" clip-path="url(#clip-path)">
        <path id="패스_55" d="M3.659 3.668A12.032 12.032 0 0 1 12.5 0a12.034 12.034 0 0 1 8.841 3.668A12.058 12.058 0 0 1 25 12.5a12.055 12.055 0 0 1-3.659 8.833A12.036 12.036 0 0 1 12.5 25a12.033 12.033 0 0 1-8.841-3.667A12.051 12.051 0 0 1 0 12.5a12.053 12.053 0 0 1 3.659-8.832M5.445 19.6a9.6 9.6 0 0 0 7.055 2.936 9.6 9.6 0 0 0 7.055-2.936 9.684 9.684 0 0 0 2.927-7.1 9.686 9.686 0 0 0-2.927-7.1A9.607 9.607 0 0 0 12.5 2.465 9.606 9.606 0 0 0 5.445 5.4a9.683 9.683 0 0 0-2.927 7.1 9.681 9.681 0 0 0 2.927 7.1M8.08 8.069a5.925 5.925 0 0 1 4.391-1.849 6.023 6.023 0 0 1 4.421 1.849 6.052 6.052 0 0 1 1.844 4.431 6.052 6.052 0 0 1-1.844 4.431 6.025 6.025 0 0 1-4.421 1.848 5.927 5.927 0 0 1-4.391-1.848A6.1 6.1 0 0 1 6.265 12.5 6.1 6.1 0 0 1 8.08 8.069" class="cls-1"/>
    </g>
</svg>
