<svg xmlns="http://www.w3.org/2000/svg" width="42" height="42">
    <path data-name="패스 7700" d="M0 0h42v42H0z" style="fill:none"/>
    <path data-name="패스 7701" d="M20.255 13.253a7 7 0 1 0 7 7 7 7 0 0 0-7-7zM35.9 18.5A15.744 15.744 0 0 0 22 4.6V2.75a1.75 1.75 0 0 0-3.5 0v1.856a15.744 15.744 0 0 0-13.9 13.9H2.75a1.75 1.75 0 0 0 0 3.5h1.856A15.744 15.744 0 0 0 18.5 35.9v1.855a1.75 1.75 0 0 0 3.5 0V35.9A15.744 15.744 0 0 0 35.9 22h1.855a1.75 1.75 0 0 0 0-3.5H35.9zm-15.649 14a12.253 12.253 0 1 1 12.257-12.245 12.244 12.244 0 0 1-12.253 12.253z" transform="translate(.745 .745)" style="fill:#767676"/>
</svg>
