<svg data-name="그룹 98" xmlns="http://www.w3.org/2000/svg" width="18" height="20" viewBox="0 0 18 20">
    <path data-name="패스 17" d="M167.723 238.823h-.98v-1.9a4.9 4.9 0 0 0-9.8 0v1.9h-.98a1.939 1.939 0 0 0-1.96 1.9v9.524a1.939 1.939 0 0 0 1.96 1.9h11.762a1.939 1.939 0 0 0 1.96-1.9v-9.524a1.939 1.939 0 0 0-1.962-1.9zm-8.822-2.106a2.942 2.942 0 0 1 5.881 0v2.106H158.9zm9.029 13.736h-12.177v-9.926h12.177zm-6.088-3.058a1.906 1.906 0 1 0-1.96-1.9 1.933 1.933 0 0 0 1.959 1.899z" transform="translate(-153 -232.156)" style="fill:#acacac"/>
    <path data-name="사각형 59" transform="translate(0 1)" style="fill:none" d="M0 0h18v17.089H0z"/>
</svg>
