<svg xmlns="http://www.w3.org/2000/svg" width="16.62" height="18" viewBox="0 0 16.62 18">
    <path data-name="패스 19" d="M-243.825 94.01a5.43 5.43 0 0 0 3.356-5.01 5.454 5.454 0 0 0-5.479-5.429A5.454 5.454 0 0 0-251.427 89a5.43 5.43 0 0 0 3.356 5.006 7.758 7.758 0 0 0-5.627 6.564h.786a7 7 0 0 1 6.964-6.081 7 7 0 0 1 6.964 6.081h.786a7.758 7.758 0 0 0-5.627-6.56zm-6.772-4.928a4.582 4.582 0 0 1 4.649-4.552 4.617 4.617 0 0 1 4.689 4.552 4.627 4.627 0 0 1-4.648 4.606 4.663 4.663 0 0 1-4.693-4.606z" transform="translate(254.258 -83.074)" style="fill:#acacac;stroke:#acacac"/>
</svg>
