<svg xmlns="http://www.w3.org/2000/svg" width="44" height="56">
    <path data-name="패스 7694" d="M149.265 196.37a5.293 5.293 0 0 1 3.807 1.562 4.971 4.971 0 0 1 1.613 3.688v26.75a4.965 4.965 0 0 1-1.613 3.686 5.289 5.289 0 0 1-3.807 1.563h-33.032a5.439 5.439 0 0 1-3.935-1.563 4.96 4.96 0 0 1-1.613-3.686v-26.751a4.966 4.966 0 0 1 1.613-3.688 5.444 5.444 0 0 1 3.935-1.562h2.71v-5.376a12.677 12.677 0 0 1 4.064-9.437 13.509 13.509 0 0 1 9.742-3.937 13.29 13.29 0 0 1 9.677 3.937 12.778 12.778 0 0 1 4 9.437v5.376zm-8 0v-5.376a7.816 7.816 0 0 0-2.517-5.812 8.4 8.4 0 0 0-6.065-2.437 8.185 8.185 0 0 0-6 2.437 7.915 7.915 0 0 0-2.451 5.812v5.376zm-12.452 22.437a5.574 5.574 0 0 0 7.741 0 5.311 5.311 0 0 0 0-7.625 5.575 5.575 0 0 0-7.741 0 5.311 5.311 0 0 0 0 7.625z" transform="translate(-110.685 -177.619)" style="fill:#007eff"/>
</svg>
