<svg xmlns="http://www.w3.org/2000/svg" width="22" height="25.818" viewBox="0 0 22 25.818">
    <path fill="#191919" d="M228.8 221.75a3.89 3.89 0 0 0-2.121 1.97 6.313 6.313 0 0 0-.849 3.06 6.617 6.617 0 0 0 .97 3.485 4.227 4.227 0 0 0 2.606 2.03 13.055 13.055 0 0 1-1.606 3.363 9.8 9.8 0 0 1-2.273 2.576 4.186 4.186 0 0 1-2.424.667 6.427 6.427 0 0 1-2.242-.485 4.36 4.36 0 0 0-1.879-.546 8.579 8.579 0 0 0-2.424.727 6.785 6.785 0 0 1-1.576.3 4.789 4.789 0 0 1-2.97-1.212 14.433 14.433 0 0 1-3.394-4.909 15.007 15.007 0 0 1-1.212-5.939 9.161 9.161 0 0 1 1.848-5.666 5.648 5.648 0 0 1 4.7-2.454 6.421 6.421 0 0 1 2.909.667 3.759 3.759 0 0 0 2.061.667 5.017 5.017 0 0 0 1.879-.363 10.954 10.954 0 0 1 3.152-.97 5.405 5.405 0 0 1 3.7 1.394 5.734 5.734 0 0 1 1.145 1.638zm-10.545-2.85a6.055 6.055 0 0 1 1.515-3.818 6.328 6.328 0 0 1 3.7-2 6.18 6.18 0 0 1-1.454 4.061 5 5 0 0 1-3.761 1.757z" transform="translate(-207.407 -213.083)"/>
</svg>
