<svg width="89" height="28" viewBox="0 0 89 28" fill="none" xmlns="http://www.w3.org/2000/svg">
<path d="M48.1364 14V28" stroke="#FFF0F9" stroke-width="2"/>
<mask id="path-2-inside-1_180_711" fill="white">
<path d="M0.344154 0H88.6558V10C88.6558 12.2091 86.865 14 84.6558 14H4.34415C2.13501 14 0.344154 12.2091 0.344154 10V0Z"/>
</mask>
<path d="M0.344154 0H88.6558H0.344154ZM90.6558 10C90.6558 13.3137 87.9696 16 84.6558 16H4.34415C1.03045 16 -1.65585 13.3137 -1.65585 10H2.34415C2.34415 11.1046 3.23958 12 4.34415 12H84.6558C85.7604 12 86.6558 11.1046 86.6558 10H90.6558ZM4.34415 16C1.03045 16 -1.65585 13.3137 -1.65585 10V0H2.34415V10C2.34415 11.1046 3.23958 12 4.34415 12V16ZM90.6558 0V10C90.6558 13.3137 87.9696 16 84.6558 16V12C85.7604 12 86.6558 11.1046 86.6558 10V0H90.6558Z" fill="#FFF0F9" mask="url(#path-2-inside-1_180_711)"/>
</svg>
