<svg width="48" height="48" viewBox="0 0 48 48" fill="none" xmlns="http://www.w3.org/2000/svg">
<g clip-path="url(#clip0_141_756)">
<rect width="1.08462" height="13.8382" rx="0.542309" transform="matrix(-0.707105 -0.707109 0.707105 -0.707109 3.68536 43.3944)" fill="#A8B0BF"/>
<path d="M11.0619 38.106C10.3738 38.661 9.37802 38.6078 8.75294 37.9827L8.3301 37.5599C7.70502 36.9348 7.65183 35.939 8.20676 35.2508L10.3909 32.5425C11.0364 31.7421 12.2335 31.6781 12.9605 32.4052L13.9076 33.3522C14.6347 34.0793 14.5707 35.2764 13.7703 35.9219L11.0619 38.106Z" fill="#D5DAE4"/>
<path d="M20.244 33.4077C19.5685 34.0832 18.4733 34.0832 17.7977 33.4077L12.9052 28.5151C12.2297 27.8396 12.2297 26.7444 12.9052 26.0688L24.2189 14.755C24.5567 14.4173 25.1043 14.4173 25.4421 14.755L31.5577 20.8708C31.8955 21.2085 31.8955 21.7561 31.5577 22.0939L20.244 33.4077Z" fill="#F0F1F5"/>
<path d="M17.3776 36.2745C16.5966 37.0555 15.3302 37.0555 14.5492 36.2745L10.0388 31.7641C9.25777 30.983 9.25777 29.7167 10.0388 28.9356L22.4673 16.5071L29.8061 23.8459L17.3776 36.2745Z" fill="#3B91F7"/>
<path d="M29.3126 24.3392L21.9738 17.0004L23.9135 15.0607L31.2523 22.3995L29.3126 24.3392Z" fill="#3479F7"/>
<rect width="6.05445" height="10.7265" transform="matrix(-0.707105 -0.707109 0.707105 -0.707109 30.3058 20.2298)" fill="#D5DAE4"/>
<rect width="14.9135" height="2.59467" rx="0.864889" transform="matrix(-0.707105 -0.707109 0.707105 -0.707109 32.8263 23.9735)" fill="#D5DAE4"/>
<path d="M19.7483 26.8954C19.4836 27.1601 19.0543 27.1601 18.7896 26.8954L15.4343 23.54L16.3929 22.5814L19.7483 25.9367C20.013 26.2015 20.013 26.6307 19.7483 26.8954Z" fill="#F0F1F5"/>
<path d="M16.1149 29.0142C15.8501 29.279 15.4209 29.279 15.1562 29.0142L12.5581 26.4161L13.5167 25.4574L16.1149 28.0555C16.3796 28.3203 16.3796 28.7495 16.1149 29.0142Z" fill="#F0F1F5"/>
<rect width="10" height="2.59467" rx="0.864889" transform="matrix(-0.707105 -0.707109 0.707105 -0.707109 37.6824 15.643)" fill="#D5DAE4"/>
<path d="M27.4648 27.0782H39.4648V30.5067H27.4648V27.0782Z" fill="#E5E9F1"/>
<path d="M26.179 31.7924C26.179 30.609 27.1384 29.6496 28.3219 29.6496H38.6076C39.7911 29.6496 40.7505 30.609 40.7505 31.7924V43.3639C40.7505 43.8373 40.3667 44.221 39.8933 44.221H27.0362C26.5628 44.221 26.179 43.8373 26.179 43.3639V31.7924Z" fill="#E5E9F1"/>
<path d="M26.179 33.9433H40.7505V43.3639C40.7505 43.8373 40.3667 44.221 39.8933 44.221H27.0362C26.5628 44.221 26.179 43.8373 26.179 43.3639V33.9433Z" fill="#48C954"/>
<rect x="36.4652" y="32.221" width="1.28571" height="8.14286" rx="0.642857" fill="white"/>
<rect x="26.179" y="25.4574" width="14.5714" height="3" rx="0.857143" fill="#5DD975"/>
</g>
<defs>
<clipPath id="clip0_141_756">
<rect width="48" height="48" fill="white"/>
</clipPath>
</defs>
</svg>
